<svg width="24" height="24" viewBox="0 0 24 24" fill="none" xmlns="http://www.w3.org/2000/svg">
<path d="M22.0407 7.88447L14.5407 0.38447C14.4188 0.262579 14.2741 0.165889 14.1149 0.0999211C13.9556 0.0339534 13.7849 0 13.6126 0C13.4402 0 13.2695 0.0339534 13.1102 0.0999211C12.951 0.165889 12.8063 0.262579 12.6844 0.38447L5.18443 7.88447C5.06222 8.00611 4.96533 8.15076 4.89936 8.31007C4.83338 8.46937 4.79963 8.64017 4.80005 8.8126V17.8126C4.80005 17.9618 4.85932 18.1049 4.96481 18.2103C5.07029 18.3158 5.21337 18.3751 5.36255 18.3751H11.3626C11.5117 18.3751 11.6548 18.3158 11.7603 18.2103C11.8658 18.1049 11.9251 17.9618 11.9251 17.8126V12.3751H15.3001V17.8126C15.3001 17.9618 15.3593 18.1049 15.4648 18.2103C15.5703 18.3158 15.7134 18.3751 15.8626 18.3751H21.8626C22.0117 18.3751 22.1548 18.3158 22.2603 18.2103C22.3658 18.1049 22.4251 17.9618 22.4251 17.8126V8.8126C22.4255 8.64017 22.3917 8.46937 22.3258 8.31007C22.2598 8.15076 22.1629 8.00611 22.0407 7.88447ZM21.3001 17.2501H16.4251V11.8126C16.4251 11.6634 16.3658 11.5203 16.2603 11.4148C16.1548 11.3094 16.0117 11.2501 15.8626 11.2501H11.3626C11.2134 11.2501 11.0703 11.3094 10.9648 11.4148C10.8593 11.5203 10.8001 11.6634 10.8001 11.8126V17.2501H5.92505V8.8126C5.92491 8.78792 5.92964 8.76346 5.93897 8.74061C5.9483 8.71777 5.96205 8.69699 5.97943 8.67947L13.4794 1.17947C13.4969 1.1619 13.5176 1.14795 13.5404 1.13843C13.5633 1.12891 13.5878 1.12401 13.6126 1.12401C13.6373 1.12401 13.6618 1.12891 13.6847 1.13843C13.7075 1.14795 13.7282 1.1619 13.7457 1.17947L21.2457 8.67947C21.2631 8.69699 21.2768 8.71777 21.2861 8.74061C21.2955 8.76346 21.3002 8.78792 21.3001 8.8126V17.2501Z" fill="#AC0C0C"/>
</svg>
