<svg width="24" height="24" viewBox="0 0 24 24" fill="none" xmlns="http://www.w3.org/2000/svg">
<path d="M11.75 5.5L11.21 6.02C11.28 6.09259 11.3638 6.15032 11.4566 6.18976C11.5494 6.2292 11.6492 6.24952 11.75 6.24952C11.8508 6.24952 11.9506 6.2292 12.0434 6.18976C12.1362 6.15032 12.22 6.09259 12.29 6.02L11.75 5.5ZM9.176 18.322C7.66 17.127 6.003 15.96 4.688 14.48C3.4 13.028 2.5 11.335 2.5 9.137H1C1 11.803 2.11 13.837 3.567 15.476C4.997 17.086 6.821 18.376 8.247 19.5L9.176 18.322ZM2.5 9.137C2.5 6.987 3.715 5.183 5.374 4.424C6.986 3.687 9.152 3.882 11.21 6.02L12.29 4.981C9.85 2.444 7.014 2.025 4.75 3.06C2.536 4.073 1 6.425 1 9.137H2.5ZM8.247 19.5C8.76 19.904 9.31 20.334 9.867 20.66C10.424 20.986 11.06 21.25 11.75 21.25V19.75C11.44 19.75 11.076 19.63 10.624 19.365C10.171 19.101 9.702 18.737 9.176 18.322L8.247 19.5ZM15.253 19.5C16.679 18.375 18.503 17.087 19.933 15.476C21.39 13.836 22.5 11.803 22.5 9.137H21C21 11.335 20.1 13.028 18.812 14.48C17.497 15.96 15.84 17.127 14.324 18.322L15.253 19.5ZM22.5 9.137C22.5 6.425 20.965 4.073 18.75 3.06C16.486 2.025 13.652 2.444 11.21 4.98L12.29 6.02C14.348 3.883 16.514 3.687 18.126 4.424C19.785 5.183 21 6.986 21 9.137H22.5ZM14.324 18.322C13.798 18.737 13.329 19.101 12.876 19.365C12.423 19.629 12.06 19.75 11.75 19.75V21.25C12.44 21.25 13.076 20.985 13.633 20.66C14.191 20.334 14.74 19.904 15.253 19.5L14.324 18.322Z" fill="#AC0C0C"/>
</svg>
