<svg width="144" height="34" viewBox="0 0 144 34" fill="none" xmlns="http://www.w3.org/2000/svg">
<path d="M21.888 27.824C20.352 27.824 18.6987 27.568 16.928 27.056C16.3093 26.864 15.7013 26.6507 15.104 26.416C14.5067 26.1813 13.9093 25.936 13.312 25.68C12.544 26.256 11.6053 26.736 10.496 27.12C9.38667 27.504 8.33067 27.696 7.328 27.696C6.02667 27.696 5.07733 27.408 4.48 26.832C3.904 26.256 3.616 25.616 3.616 24.912C3.616 24.1867 3.904 23.5147 4.48 22.896C5.056 22.2773 5.84533 21.968 6.848 21.968C7.65867 21.968 8.49067 22.1707 9.344 22.576C10.1973 22.9813 10.9973 23.3547 11.744 23.696C11.9573 23.8027 12.1813 23.9093 12.416 24.016C12.6507 24.1227 12.8853 24.2293 13.12 24.336C13.824 23.7173 14.5813 22.896 15.392 21.872C16.2027 20.848 17.0453 19.7173 17.92 18.48C18.7947 17.2427 19.68 15.984 20.576 14.704C21.4933 13.424 22.4107 12.1973 23.328 11.024C24.2453 9.85067 25.1627 8.82667 26.08 7.952C25.44 7.696 24.7573 7.504 24.032 7.376C23.3067 7.22667 22.528 7.152 21.696 7.152C19.456 7.152 17.5147 7.376 15.872 7.824C14.2507 8.25067 12.8853 8.816 11.776 9.52C10.688 10.224 9.824 10.9813 9.184 11.792C8.56533 12.5813 8.13867 13.328 7.904 14.032C7.81867 14.3093 7.75467 14.5653 7.712 14.8C7.66933 15.0133 7.648 15.2267 7.648 15.44C7.648 16.1653 7.872 16.7093 8.32 17.072C8.768 17.4347 9.344 17.616 10.048 17.616C10.7733 17.616 11.584 17.4133 12.48 17.008C13.376 16.6027 14.2933 15.9733 15.232 15.12C16.1707 14.2453 17.0347 13.104 17.824 11.696C17.9307 11.504 18.0907 11.408 18.304 11.408C18.4747 11.408 18.6133 11.4613 18.72 11.568C18.848 11.6533 18.912 11.7813 18.912 11.952C18.912 12.0587 18.88 12.1653 18.816 12.272C17.9627 13.7653 17.0133 14.992 15.968 15.952C14.944 16.912 13.9093 17.6267 12.864 18.096C11.84 18.544 10.88 18.768 9.984 18.768C8.98133 18.768 8.14933 18.4907 7.488 17.936C6.82667 17.36 6.496 16.5493 6.496 15.504C6.496 14.928 6.60267 14.32 6.816 13.68C7.09333 12.8053 7.584 11.92 8.288 11.024C9.01333 10.128 9.97333 9.30667 11.168 8.56C12.384 7.792 13.856 7.17333 15.584 6.704C17.3333 6.23467 19.3707 6 21.696 6C22.72 6 23.6693 6.096 24.544 6.288C25.44 6.48 26.2613 6.74667 27.008 7.088C27.648 6.53333 28.2773 6.096 28.896 5.776C29.536 5.456 30.144 5.296 30.72 5.296C30.912 5.296 31.0507 5.36 31.136 5.488C31.2213 5.59467 31.264 5.72267 31.264 5.872C31.264 6.02133 31.2213 6.16 31.136 6.288C31.0507 6.39467 30.912 6.448 30.72 6.448C30.0373 6.448 29.1627 6.85333 28.096 7.664C29.7813 8.688 31.04 10.0533 31.872 11.76C32.7253 13.4667 33.152 15.2267 33.152 17.04C33.152 18.7253 32.8107 20.3147 32.128 21.808C31.3387 23.5787 30.048 25.0187 28.256 26.128C26.464 27.2587 24.3413 27.824 21.888 27.824ZM17.28 25.968C18.88 26.4373 20.4053 26.672 21.856 26.672C24.1387 26.672 26.0693 26.1707 27.648 25.168C29.248 24.144 30.4 22.8533 31.104 21.296C31.7227 19.952 32.032 18.5333 32.032 17.04C32.032 15.3547 31.6267 13.7333 30.816 12.176C30.0053 10.5973 28.7893 9.36 27.168 8.464C26.5067 9.04 25.8347 9.72267 25.152 10.512C24.4907 11.3013 23.84 12.1547 23.2 13.072C22.7307 13.7547 22.1333 14.6187 21.408 15.664C20.6827 16.688 19.904 17.7867 19.072 18.96C18.24 20.112 17.3973 21.2107 16.544 22.256C15.712 23.3013 14.9547 24.1653 14.272 24.848C14.7627 25.0613 15.2533 25.264 15.744 25.456C16.256 25.648 16.768 25.8187 17.28 25.968ZM4.768 24.88C4.768 25.2853 4.96 25.6587 5.344 26C5.74933 26.3627 6.4 26.544 7.296 26.544C8.064 26.544 8.88533 26.416 9.76 26.16C10.6347 25.904 11.4133 25.5627 12.096 25.136C11.584 24.9013 11.072 24.6667 10.56 24.432C10.048 24.1973 9.52533 23.9627 8.992 23.728C8.672 23.5787 8.39467 23.4613 8.16 23.376C7.92533 23.2693 7.72267 23.2053 7.552 23.184C7.44533 23.1413 7.33867 23.12 7.232 23.12C7.12533 23.12 7.01867 23.12 6.912 23.12C6.25067 23.12 5.728 23.312 5.344 23.696C4.96 24.0587 4.768 24.4533 4.768 24.88ZM37.3735 26.48C36.7122 26.48 36.1468 26.2773 35.6775 25.872C35.2295 25.4667 35.0055 24.7627 35.0055 23.76C35.0055 23.0773 35.1762 22.2773 35.5175 21.36C35.8802 20.4427 36.3602 19.5573 36.9575 18.704C37.5548 17.8293 38.2162 17.1147 38.9415 16.56C39.6668 15.984 40.4028 15.696 41.1495 15.696C41.6402 15.696 42.0028 15.8773 42.2375 16.24C42.4935 16.5813 42.6215 16.9973 42.6215 17.488C42.6215 18.2133 42.3868 18.9173 41.9175 19.6C41.4482 20.2827 40.8508 20.8373 40.1255 21.264C39.4215 21.6907 38.7175 21.904 38.0135 21.904C37.4375 21.904 37.0002 21.7227 36.7015 21.36C36.5308 21.7867 36.3922 22.2027 36.2855 22.608C36.1788 23.0133 36.1255 23.3973 36.1255 23.76C36.1255 24.3787 36.2535 24.816 36.5095 25.072C36.7868 25.3067 37.1282 25.424 37.5335 25.424C38.0242 25.424 38.5682 25.296 39.1655 25.04C39.7842 24.784 40.3602 24.4853 40.8935 24.144C41.4268 23.7813 41.8215 23.4827 42.0775 23.248C42.5042 22.8853 42.9095 22.4907 43.2935 22.064C43.6988 21.616 44.0508 21.2 44.3495 20.816C44.4562 20.688 44.5735 20.624 44.7015 20.624C44.8295 20.624 44.9362 20.688 45.0215 20.816C45.1282 20.9227 45.1815 21.0613 45.1815 21.232C45.1815 21.3813 45.1282 21.5307 45.0215 21.68C44.6802 22.1067 44.2535 22.5973 43.7415 23.152C43.2508 23.6853 42.6962 24.1867 42.0775 24.656C41.7362 24.9333 41.2988 25.2107 40.7655 25.488C40.2322 25.7653 39.6668 26 39.0695 26.192C38.4935 26.384 37.9282 26.48 37.3735 26.48ZM37.9495 20.88C38.3762 20.88 38.8348 20.7413 39.3255 20.464C39.8375 20.1867 40.2855 19.824 40.6695 19.376C41.0748 18.9067 41.3415 18.4053 41.4695 17.872C41.4908 17.8293 41.5015 17.776 41.5015 17.712C41.5015 17.648 41.5015 17.5947 41.5015 17.552C41.5015 17.168 41.3628 16.976 41.0855 16.976C40.6375 16.976 40.1682 17.1467 39.6775 17.488C39.1868 17.808 38.7175 18.2453 38.2695 18.8C37.8428 19.3333 37.4588 19.92 37.1175 20.56C37.2028 20.624 37.2882 20.688 37.3735 20.752C37.4588 20.7947 37.5442 20.8267 37.6295 20.848C37.6722 20.8693 37.7255 20.88 37.7895 20.88C37.8535 20.88 37.9068 20.88 37.9495 20.88ZM45.3585 26.384C44.6332 26.384 44.1318 26.2027 43.8545 25.84C43.5772 25.4773 43.4385 25.008 43.4385 24.432C43.4385 23.8773 43.5345 23.2693 43.7265 22.608C43.9398 21.9253 44.1852 21.264 44.4625 20.624C44.7612 19.984 45.0492 19.4293 45.3265 18.96C45.6038 18.4693 45.8172 18.1387 45.9665 17.968C46.0305 17.2213 46.2545 16.6667 46.6385 16.304C47.0225 15.92 47.3532 15.728 47.6305 15.728C47.7585 15.728 47.8545 15.76 47.9185 15.824C48.0892 15.9947 48.1745 16.1867 48.1745 16.4C48.1745 16.6773 48.0465 17.0293 47.7905 17.456C47.5345 17.8827 47.1505 18.448 46.6385 19.152C46.5745 19.2373 46.4358 19.4613 46.2225 19.824C46.0092 20.1867 45.7852 20.624 45.5505 21.136C45.3158 21.648 45.1132 22.1707 44.9425 22.704C44.7718 23.2373 44.6865 23.7067 44.6865 24.112C44.6865 24.816 44.9958 25.168 45.6145 25.168C46.2758 25.168 46.9265 24.9227 47.5665 24.432C48.2278 23.9413 48.8358 23.3227 49.3905 22.576C49.9665 21.808 50.4678 21.008 50.8945 20.176C51.3425 19.3227 51.6838 18.5333 51.9185 17.808C52.1745 17.0827 52.3025 16.5173 52.3025 16.112C52.3025 15.8987 52.2812 15.76 52.2385 15.696C52.1532 15.5467 52.1105 15.3973 52.1105 15.248C52.1105 15.056 52.1745 14.9067 52.3025 14.8C52.4305 14.6933 52.5692 14.64 52.7185 14.64C53.0385 14.64 53.2732 14.8107 53.4225 15.152C53.5078 15.3227 53.5505 15.5787 53.5505 15.92C53.5505 16.5173 53.4012 17.264 53.1025 18.16C52.8252 19.0347 52.4198 19.952 51.8865 20.912C51.3745 21.8507 50.7772 22.736 50.0945 23.568C49.4118 24.4 48.6652 25.0827 47.8545 25.616C47.0438 26.128 46.2118 26.384 45.3585 26.384ZM63.6533 29.968C61.7119 29.968 60.1119 29.7013 58.8533 29.168C57.5946 28.656 56.6666 27.9413 56.0693 27.024C55.4719 26.1067 55.1733 25.072 55.1733 23.92C55.1733 22.5973 55.5359 21.168 56.2613 19.632C56.9866 18.0747 58.0319 16.5493 59.3973 15.056C59.3973 15.056 59.4079 15.0453 59.4293 15.024C58.7679 14.7893 58.1493 14.5227 57.5733 14.224C56.9973 13.9253 56.4853 13.584 56.0373 13.2C55.5253 12.7733 55.1413 12.304 54.8853 11.792C54.6293 11.28 54.5013 10.7893 54.5013 10.32C54.5013 9.63733 54.7573 9.06133 55.2693 8.592C55.7813 8.10133 56.5599 7.856 57.6053 7.856C57.9466 7.856 58.3093 7.888 58.6933 7.952C59.0773 7.99467 59.4826 8.08 59.9093 8.208C60.2079 8.29333 60.3573 8.47467 60.3573 8.752C60.3573 8.90133 60.2719 9.05067 60.1013 9.2C59.9519 9.328 59.7599 9.34933 59.5253 9.264C58.8213 9.072 58.2133 8.976 57.7013 8.976C57.0613 8.976 56.5706 9.104 56.2293 9.36C55.9093 9.616 55.7493 9.936 55.7493 10.32C55.7493 10.896 56.1119 11.5573 56.8373 12.304C57.5839 13.0293 58.7359 13.6373 60.2933 14.128C61.5733 12.8693 63.0346 11.7387 64.6773 10.736C66.3413 9.712 68.1333 8.90133 70.0533 8.304C71.9733 7.70667 73.9786 7.408 76.0693 7.408C78.0959 7.408 79.6106 7.74933 80.6133 8.432C81.6159 9.11467 82.1173 9.904 82.1173 10.8C82.1173 11.6533 81.6693 12.5173 80.7733 13.392C79.8986 14.2453 78.5866 14.896 76.8373 15.344C75.7279 15.6213 74.4266 15.856 72.9333 16.048C71.4613 16.2187 69.9359 16.304 68.3573 16.304C67.0346 16.304 65.7119 16.24 64.3893 16.112C63.0879 15.9627 61.8506 15.728 60.6773 15.408C59.3759 16.7947 58.3413 18.2347 57.5733 19.728C56.8266 21.2 56.4533 22.576 56.4533 23.856C56.4533 25.2853 57.0079 26.48 58.1173 27.44C59.2266 28.4 61.0399 28.88 63.5573 28.88C63.8773 28.88 64.2186 28.8587 64.5813 28.816C64.9439 28.7947 65.3173 28.7733 65.7013 28.752C67.0239 28.6027 68.4426 28.2293 69.9573 27.632C71.4933 27.056 73.0079 26.2773 74.5013 25.296C76.0159 24.2933 77.4026 23.1413 78.6613 21.84C78.8106 21.6907 78.9599 21.616 79.1093 21.616C79.2586 21.616 79.3759 21.6693 79.4613 21.776C79.5679 21.8827 79.6213 22.0107 79.6213 22.16C79.6213 22.3093 79.5573 22.448 79.4293 22.576C78.2133 23.9413 76.8053 25.1467 75.2053 26.192C73.6266 27.2587 72.0159 28.1013 70.3733 28.72C68.7306 29.36 67.1946 29.744 65.7653 29.872C65.0399 29.936 64.3359 29.968 63.6533 29.968ZM61.6053 14.512C62.6293 14.7253 63.6853 14.8853 64.7733 14.992C65.8826 15.0987 66.9919 15.152 68.1013 15.152C69.8079 15.152 71.4079 15.056 72.9013 14.864C74.4159 14.672 75.5999 14.4587 76.4533 14.224C77.9679 13.84 79.0773 13.3493 79.7813 12.752C80.5066 12.1547 80.8693 11.568 80.8693 10.992C80.8693 10.3307 80.4533 9.76533 79.6213 9.296C78.7893 8.80533 77.6053 8.56 76.0693 8.56C74.1706 8.56 72.3466 8.82667 70.5972 9.36C68.8479 9.872 67.2053 10.576 65.6693 11.472C64.1546 12.368 62.7999 13.3813 61.6053 14.512ZM80.8028 26.544C80.0774 26.544 79.5654 26.3413 79.2668 25.936C78.9681 25.5093 78.8188 24.9867 78.8188 24.368C78.8188 23.856 78.8934 23.3013 79.0428 22.704C79.2134 22.0853 79.4268 21.4773 79.6828 20.88C79.7041 20.048 79.9281 19.2267 80.3548 18.416C80.8028 17.6053 81.4001 16.9333 82.1468 16.4C82.9148 15.8667 83.8108 15.6 84.8348 15.6C85.8374 15.6 86.5308 15.888 86.9148 16.464C87.3201 17.04 87.5228 17.7227 87.5228 18.512C87.5228 18.9813 87.4694 19.4613 87.3628 19.952C87.2561 20.4213 87.1174 20.8693 86.9468 21.296C86.7761 21.7227 86.5628 22.16 86.3068 22.608C86.0508 23.0347 85.7628 23.4613 85.4427 23.888C86.0828 23.7813 86.6374 23.5787 87.1068 23.28C87.5974 22.96 88.0881 22.5227 88.5788 21.968C89.0694 21.4133 89.6454 20.7093 90.3068 19.856C90.4348 19.7067 90.5734 19.632 90.7228 19.632C90.8934 19.632 91.0321 19.6853 91.1388 19.792C91.2668 19.8987 91.3308 20.0373 91.3308 20.208C91.3308 20.336 91.2881 20.4533 91.2028 20.56C90.5841 21.4133 89.9548 22.1813 89.3148 22.864C88.6961 23.5467 87.9921 24.08 87.2028 24.464C86.4134 24.848 85.4641 25.04 84.3548 25.04C83.8428 25.488 83.2881 25.8507 82.6908 26.128C82.0934 26.4053 81.4641 26.544 80.8028 26.544ZM82.6588 18.256C82.4028 18.448 82.0934 18.832 81.7308 19.408C81.3681 19.984 81.0374 20.6133 80.7388 21.296C80.7814 21.9573 81.0481 22.5547 81.5388 23.088C82.0508 23.6 82.8294 23.888 83.8748 23.952C84.6428 23.2053 85.2614 22.3307 85.7308 21.328C86.2001 20.304 86.4348 19.3867 86.4348 18.576C86.4348 18.0213 86.3068 17.5733 86.0508 17.232C85.7948 16.8907 85.3894 16.72 84.8348 16.72C84.4508 16.72 84.0774 16.784 83.7148 16.912C83.3521 17.04 83.0214 17.2107 82.7228 17.424C82.8294 17.5307 82.8828 17.6587 82.8828 17.808C82.8828 17.9787 82.8081 18.128 82.6588 18.256ZM79.9388 24.304C79.9388 24.6453 80.0028 24.9227 80.1308 25.136C80.2801 25.328 80.5041 25.424 80.8028 25.424C81.4214 25.424 82.0508 25.232 82.6908 24.848C82.0721 24.6987 81.5494 24.464 81.1228 24.144C80.6961 23.8027 80.3654 23.4187 80.1308 22.992C80.0028 23.504 79.9388 23.9413 79.9388 24.304ZM89.071 26.736C88.9217 26.736 88.783 26.6827 88.655 26.576C88.527 26.4693 88.463 26.3413 88.463 26.192C88.463 26.1493 88.4843 26.064 88.527 25.936C88.9537 25.0187 89.3697 24.1867 89.775 23.44C90.2017 22.672 90.639 21.9253 91.087 21.2C91.279 20.9013 91.4923 20.5173 91.727 20.048C91.983 19.5573 92.2283 19.0347 92.463 18.48C92.6977 17.904 92.8897 17.36 93.039 16.848C93.2097 16.336 93.295 15.92 93.295 15.6C93.295 15.4293 93.2843 15.312 93.263 15.248C93.2417 15.2267 93.231 15.184 93.231 15.12C93.231 14.9493 93.3057 14.8107 93.455 14.704C93.6257 14.576 93.7857 14.512 93.935 14.512C94.1057 14.512 94.2657 14.5973 94.415 14.768C94.5643 14.9173 94.639 15.184 94.639 15.568C94.639 15.888 94.5643 16.3147 94.415 16.848C94.287 17.36 94.063 17.9787 93.743 18.704C93.5723 19.0667 93.4123 19.408 93.263 19.728C93.1137 20.0267 92.9643 20.3147 92.815 20.592C93.647 19.7173 94.5003 18.9387 95.375 18.256C96.2497 17.552 97.0283 16.9973 97.711 16.592C98.3937 16.1867 98.8523 15.984 99.087 15.984C99.343 15.984 99.5243 16.0587 99.631 16.208C99.7377 16.3573 99.791 16.528 99.791 16.72C99.791 16.9973 99.7057 17.3173 99.535 17.68C99.3857 18.0213 99.2257 18.3307 99.055 18.608C98.8843 18.8853 98.767 19.0773 98.703 19.184C98.4683 19.5467 98.1483 20.0907 97.743 20.816C97.3377 21.5413 96.9963 22.2453 96.719 22.928C96.6337 23.1627 96.5483 23.408 96.463 23.664C96.399 23.8987 96.367 24.1013 96.367 24.272C96.367 24.5493 96.4843 24.688 96.719 24.688C96.9323 24.688 97.2417 24.5813 97.647 24.368C98.159 24.0907 98.6283 23.7387 99.055 23.312C99.503 22.864 99.887 22.48 100.207 22.16C100.228 22.1387 100.324 22.032 100.495 21.84C100.687 21.648 100.868 21.456 101.039 21.264C101.231 21.072 101.327 20.976 101.327 20.976C101.412 20.8693 101.519 20.816 101.647 20.816C101.754 20.816 101.85 20.88 101.935 21.008C102.042 21.1147 102.095 21.2533 102.095 21.424C102.095 21.616 102.042 21.776 101.935 21.904C101.615 22.352 101.178 22.8427 100.623 23.376C100.068 23.9093 99.5777 24.3467 99.151 24.688C98.703 25.0293 98.2443 25.3067 97.775 25.52C97.327 25.712 96.879 25.808 96.431 25.808C96.047 25.808 95.727 25.7333 95.471 25.584C95.215 25.4347 95.087 25.04 95.087 24.4C95.087 23.5893 95.2897 22.7893 95.695 22C96.1217 21.2107 96.591 20.432 97.103 19.664C97.6363 18.896 98.0737 18.1707 98.415 17.488C97.8817 17.808 97.167 18.2987 96.271 18.96C95.3963 19.6213 94.4683 20.4 93.487 21.296C92.527 22.1707 91.6523 23.1307 90.863 24.176C90.7137 24.4533 90.5537 24.752 90.383 25.072C90.2123 25.392 90.0417 25.744 89.871 26.128C89.679 26.5333 89.4123 26.736 89.071 26.736ZM100.852 26.736C100.703 26.736 100.564 26.6827 100.436 26.576C100.308 26.4693 100.244 26.3413 100.244 26.192C100.244 26.1493 100.266 26.064 100.308 25.936C100.735 25.0187 101.151 24.1867 101.556 23.44C101.983 22.672 102.42 21.9253 102.868 21.2C103.06 20.9013 103.274 20.5173 103.508 20.048C103.764 19.5573 104.01 19.0347 104.244 18.48C104.479 17.904 104.671 17.36 104.82 16.848C104.991 16.336 105.076 15.92 105.076 15.6C105.076 15.4293 105.066 15.312 105.044 15.248C105.023 15.2267 105.012 15.184 105.012 15.12C105.012 14.9493 105.087 14.8107 105.236 14.704C105.407 14.576 105.567 14.512 105.716 14.512C105.887 14.512 106.047 14.5973 106.196 14.768C106.346 14.9173 106.42 15.184 106.42 15.568C106.42 15.888 106.346 16.3147 106.196 16.848C106.068 17.36 105.844 17.9787 105.524 18.704C105.354 19.0667 105.194 19.408 105.044 19.728C104.895 20.0267 104.746 20.3147 104.596 20.592C105.428 19.7173 106.282 18.9387 107.156 18.256C108.031 17.552 108.81 16.9973 109.492 16.592C110.175 16.1867 110.634 15.984 110.868 15.984C111.124 15.984 111.306 16.0587 111.412 16.208C111.519 16.3573 111.572 16.528 111.572 16.72C111.572 16.9973 111.487 17.3173 111.316 17.68C111.167 18.0213 111.007 18.3307 110.836 18.608C110.666 18.8853 110.548 19.0773 110.484 19.184C110.25 19.5467 109.93 20.0907 109.524 20.816C109.119 21.5413 108.778 22.2453 108.5 22.928C108.415 23.1627 108.33 23.408 108.244 23.664C108.18 23.8987 108.148 24.1013 108.148 24.272C108.148 24.5493 108.266 24.688 108.5 24.688C108.714 24.688 109.023 24.5813 109.428 24.368C109.94 24.0907 110.41 23.7387 110.836 23.312C111.284 22.864 111.668 22.48 111.988 22.16C112.01 22.1387 112.106 22.032 112.276 21.84C112.468 21.648 112.65 21.456 112.82 21.264C113.012 21.072 113.108 20.976 113.108 20.976C113.194 20.8693 113.3 20.816 113.428 20.816C113.535 20.816 113.631 20.88 113.716 21.008C113.823 21.1147 113.876 21.2533 113.876 21.424C113.876 21.616 113.823 21.776 113.716 21.904C113.396 22.352 112.959 22.8427 112.404 23.376C111.85 23.9093 111.359 24.3467 110.932 24.688C110.484 25.0293 110.026 25.3067 109.556 25.52C109.108 25.712 108.66 25.808 108.212 25.808C107.828 25.808 107.508 25.7333 107.252 25.584C106.996 25.4347 106.868 25.04 106.868 24.4C106.868 23.5893 107.071 22.7893 107.476 22C107.903 21.2107 108.372 20.432 108.884 19.664C109.418 18.896 109.855 18.1707 110.196 17.488C109.663 17.808 108.948 18.2987 108.052 18.96C107.178 19.6213 106.25 20.4 105.268 21.296C104.308 22.1707 103.434 23.1307 102.644 24.176C102.495 24.4533 102.335 24.752 102.164 25.072C101.994 25.392 101.823 25.744 101.652 26.128C101.46 26.5333 101.194 26.736 100.852 26.736ZM114.874 26.48C114.212 26.48 113.647 26.2773 113.178 25.872C112.73 25.4667 112.506 24.7627 112.506 23.76C112.506 23.0773 112.676 22.2773 113.018 21.36C113.38 20.4427 113.86 19.5573 114.458 18.704C115.055 17.8293 115.716 17.1147 116.442 16.56C117.167 15.984 117.903 15.696 118.65 15.696C119.14 15.696 119.503 15.8773 119.738 16.24C119.994 16.5813 120.122 16.9973 120.122 17.488C120.122 18.2133 119.887 18.9173 119.418 19.6C118.948 20.2827 118.351 20.8373 117.626 21.264C116.922 21.6907 116.218 21.904 115.514 21.904C114.938 21.904 114.5 21.7227 114.202 21.36C114.031 21.7867 113.892 22.2027 113.786 22.608C113.679 23.0133 113.626 23.3973 113.626 23.76C113.626 24.3787 113.754 24.816 114.01 25.072C114.287 25.3067 114.628 25.424 115.034 25.424C115.524 25.424 116.068 25.296 116.666 25.04C117.284 24.784 117.86 24.4853 118.394 24.144C118.927 23.7813 119.322 23.4827 119.578 23.248C120.004 22.8853 120.41 22.4907 120.794 22.064C121.199 21.616 121.551 21.2 121.85 20.816C121.956 20.688 122.074 20.624 122.202 20.624C122.33 20.624 122.436 20.688 122.522 20.816C122.628 20.9227 122.682 21.0613 122.682 21.232C122.682 21.3813 122.628 21.5307 122.522 21.68C122.18 22.1067 121.754 22.5973 121.242 23.152C120.751 23.6853 120.196 24.1867 119.578 24.656C119.236 24.9333 118.799 25.2107 118.266 25.488C117.732 25.7653 117.167 26 116.57 26.192C115.994 26.384 115.428 26.48 114.874 26.48ZM115.45 20.88C115.876 20.88 116.335 20.7413 116.826 20.464C117.338 20.1867 117.786 19.824 118.17 19.376C118.575 18.9067 118.842 18.4053 118.97 17.872C118.991 17.8293 119.002 17.776 119.002 17.712C119.002 17.648 119.002 17.5947 119.002 17.552C119.002 17.168 118.863 16.976 118.586 16.976C118.138 16.976 117.668 17.1467 117.178 17.488C116.687 17.808 116.218 18.2453 115.77 18.8C115.343 19.3333 114.959 19.92 114.618 20.56C114.703 20.624 114.788 20.688 114.874 20.752C114.959 20.7947 115.044 20.8267 115.13 20.848C115.172 20.8693 115.226 20.88 115.29 20.88C115.354 20.88 115.407 20.88 115.45 20.88ZM123.755 26.224C122.859 26.224 122.176 26 121.707 25.552C121.259 25.104 121.035 24.528 121.035 23.824C121.035 23.0133 121.195 22.2453 121.515 21.52C121.856 20.7947 122.24 20.1227 122.667 19.504C123.285 18.608 124.021 17.8507 124.875 17.232C125.749 16.592 126.656 16.272 127.595 16.272C128.213 16.272 128.64 16.4213 128.875 16.72C129.109 16.9973 129.227 17.3493 129.227 17.776C129.227 18.224 129.131 18.6933 128.939 19.184C128.747 19.6533 128.533 20.0267 128.299 20.304C128.149 20.4747 127.989 20.56 127.819 20.56C127.477 20.56 127.307 20.4107 127.307 20.112C127.307 19.9627 127.371 19.824 127.499 19.696C127.605 19.5893 127.733 19.344 127.883 18.96C128.053 18.5547 128.139 18.2027 128.139 17.904C128.139 17.6053 128.043 17.4453 127.851 17.424C127.787 17.4027 127.701 17.392 127.595 17.392C127.168 17.392 126.688 17.5627 126.155 17.904C125.621 18.224 125.109 18.6507 124.619 19.184C124.128 19.7173 123.712 20.2827 123.371 20.88C123.093 21.3493 122.869 21.8507 122.699 22.384C122.528 22.9173 122.443 23.376 122.443 23.76C122.443 24.1653 122.56 24.4853 122.795 24.72C123.051 24.9547 123.413 25.072 123.883 25.072C124.629 25.072 125.408 24.8693 126.219 24.464C127.051 24.0587 127.723 23.6427 128.235 23.216C128.661 22.8533 129.056 22.48 129.419 22.096C129.781 21.6907 130.123 21.3173 130.443 20.976C130.528 20.8693 130.635 20.816 130.763 20.816C130.869 20.816 130.965 20.88 131.051 21.008C131.157 21.1147 131.211 21.2533 131.211 21.424C131.211 21.616 131.157 21.776 131.051 21.904C130.709 22.352 130.261 22.8533 129.707 23.408C129.152 23.9413 128.661 24.368 128.235 24.688C127.637 25.1147 126.923 25.4773 126.091 25.776C125.259 26.0747 124.48 26.224 123.755 26.224ZM132.73 26.32C131.557 26.32 130.97 25.7333 130.97 24.56C130.97 24.0693 131.077 23.5147 131.29 22.896C131.61 21.9573 132.09 20.944 132.73 19.856C133.391 18.768 134.063 17.7227 134.746 16.72H133.594C133.423 16.72 133.285 16.6667 133.178 16.56C133.093 16.432 133.05 16.2933 133.05 16.144C133.05 16.016 133.093 15.8987 133.178 15.792C133.285 15.664 133.423 15.6 133.594 15.6H135.546C135.781 15.3013 135.994 15.0133 136.186 14.736C136.378 14.4373 136.57 14.1493 136.762 13.872C137.061 13.104 137.423 12.368 137.85 11.664C138.298 10.96 138.842 10.3947 139.482 9.968C139.589 9.904 139.685 9.872 139.77 9.872C139.941 9.872 140.09 9.95733 140.218 10.128C140.346 10.2773 140.41 10.448 140.41 10.64C140.41 10.7893 140.357 10.9493 140.25 11.12C140.186 11.2053 139.983 11.472 139.642 11.92C139.301 12.368 138.895 12.9227 138.426 13.584C137.957 14.224 137.466 14.896 136.954 15.6H140.026C140.218 15.6 140.357 15.664 140.442 15.792C140.527 15.8987 140.57 16.016 140.57 16.144C140.57 16.2933 140.527 16.432 140.442 16.56C140.357 16.6667 140.218 16.72 140.026 16.72H136.186L135.898 17.168C135.706 17.4453 135.418 17.8933 135.034 18.512C134.671 19.1307 134.277 19.8133 133.85 20.56C133.445 21.3067 133.093 22.032 132.794 22.736C132.517 23.4187 132.378 23.984 132.378 24.432C132.378 24.9653 132.602 25.232 133.05 25.232C133.413 25.232 133.957 25.0613 134.682 24.72C135.429 24.3573 136.165 23.8667 136.89 23.248C137.317 22.8853 137.711 22.5013 138.074 22.096C138.437 21.6907 138.778 21.3173 139.098 20.976C139.183 20.8693 139.29 20.816 139.418 20.816C139.525 20.816 139.621 20.88 139.706 21.008C139.813 21.1147 139.866 21.2533 139.866 21.424C139.866 21.616 139.813 21.776 139.706 21.904C139.386 22.352 138.938 22.8533 138.362 23.408C137.807 23.9413 137.317 24.368 136.89 24.688C136.079 25.2853 135.205 25.7333 134.266 26.032C133.69 26.224 133.178 26.32 132.73 26.32Z" fill="black"/>
</svg>
