<svg width="306" height="61" viewBox="0 0 306 61" fill="none" xmlns="http://www.w3.org/2000/svg">
<path d="M43.776 56.648C40.704 56.648 37.3973 56.136 33.856 55.112C32.6187 54.728 31.4027 54.3013 30.208 53.832C29.0133 53.3627 27.8187 52.872 26.624 52.36C25.088 53.512 23.2107 54.472 20.992 55.24C18.7733 56.008 16.6613 56.392 14.656 56.392C12.0533 56.392 10.1547 55.816 8.96 54.664C7.808 53.512 7.232 52.232 7.232 50.824C7.232 49.3733 7.808 48.0293 8.96 46.792C10.112 45.5547 11.6907 44.936 13.696 44.936C15.3173 44.936 16.9813 45.3413 18.688 46.152C20.3947 46.9627 21.9947 47.7093 23.488 48.392C23.9147 48.6053 24.3627 48.8187 24.832 49.032C25.3013 49.2453 25.7707 49.4587 26.24 49.672C27.648 48.4347 29.1627 46.792 30.784 44.744C32.4053 42.696 34.0907 40.4347 35.84 37.96C37.5893 35.4853 39.36 32.968 41.152 30.408C42.9867 27.848 44.8213 25.3947 46.656 23.048C48.4907 20.7013 50.3253 18.6533 52.16 16.904C50.88 16.392 49.5147 16.008 48.064 15.752C46.6133 15.4533 45.056 15.304 43.392 15.304C38.912 15.304 35.0293 15.752 31.744 16.648C28.5013 17.5013 25.7707 18.632 23.552 20.04C21.376 21.448 19.648 22.9627 18.368 24.584C17.1307 26.1627 16.2773 27.656 15.808 29.064C15.6373 29.6187 15.5093 30.1307 15.424 30.6C15.3387 31.0267 15.296 31.4533 15.296 31.88C15.296 33.3307 15.744 34.4187 16.64 35.144C17.536 35.8693 18.688 36.232 20.096 36.232C21.5467 36.232 23.168 35.8267 24.96 35.016C26.752 34.2053 28.5867 32.9467 30.464 31.24C32.3413 29.4907 34.0693 27.208 35.648 24.392C35.8613 24.008 36.1813 23.816 36.608 23.816C36.9493 23.816 37.2267 23.9227 37.44 24.136C37.696 24.3067 37.824 24.5627 37.824 24.904C37.824 25.1173 37.76 25.3307 37.632 25.544C35.9253 28.5307 34.0267 30.984 31.936 32.904C29.888 34.824 27.8187 36.2533 25.728 37.192C23.68 38.088 21.76 38.536 19.968 38.536C17.9627 38.536 16.2987 37.9813 14.976 36.872C13.6533 35.72 12.992 34.0987 12.992 32.008C12.992 30.856 13.2053 29.64 13.632 28.36C14.1867 26.6107 15.168 24.84 16.576 23.048C18.0267 21.256 19.9467 19.6133 22.336 18.12C24.768 16.584 27.712 15.3467 31.168 14.408C34.6667 13.4693 38.7413 13 43.392 13C45.44 13 47.3387 13.192 49.088 13.576C50.88 13.96 52.5227 14.4933 54.016 15.176C55.296 14.0667 56.5547 13.192 57.792 12.552C59.072 11.912 60.288 11.592 61.44 11.592C61.824 11.592 62.1013 11.72 62.272 11.976C62.4427 12.1893 62.528 12.4453 62.528 12.744C62.528 13.0427 62.4427 13.32 62.272 13.576C62.1013 13.7893 61.824 13.896 61.44 13.896C60.0747 13.896 58.3253 14.7067 56.192 16.328C59.5627 18.376 62.08 21.1067 63.744 24.52C65.4507 27.9333 66.304 31.4533 66.304 35.08C66.304 38.4507 65.6213 41.6293 64.256 44.616C62.6773 48.1573 60.096 51.0373 56.512 53.256C52.928 55.5173 48.6827 56.648 43.776 56.648ZM34.56 52.936C37.76 53.8747 40.8107 54.344 43.712 54.344C48.2773 54.344 52.1387 53.3413 55.296 51.336C58.496 49.288 60.8 46.7067 62.208 43.592C63.4453 40.904 64.064 38.0667 64.064 35.08C64.064 31.7093 63.2533 28.4667 61.632 25.352C60.0107 22.1947 57.5787 19.72 54.336 17.928C53.0133 19.08 51.6693 20.4453 50.304 22.024C48.9813 23.6027 47.68 25.3093 46.4 27.144C45.4613 28.5093 44.2667 30.2373 42.816 32.328C41.3653 34.376 39.808 36.5733 38.144 38.92C36.48 41.224 34.7947 43.4213 33.088 45.512C31.424 47.6027 29.9093 49.3307 28.544 50.696C29.5253 51.1227 30.5067 51.528 31.488 51.912C32.512 52.296 33.536 52.6373 34.56 52.936ZM9.536 50.76C9.536 51.5707 9.92 52.3173 10.688 53C11.4987 53.7253 12.8 54.088 14.592 54.088C16.128 54.088 17.7707 53.832 19.52 53.32C21.2693 52.808 22.8267 52.1253 24.192 51.272C23.168 50.8027 22.144 50.3333 21.12 49.864C20.096 49.3947 19.0507 48.9253 17.984 48.456C17.344 48.1573 16.7893 47.9227 16.32 47.752C15.8507 47.5387 15.4453 47.4107 15.104 47.368C14.8907 47.2827 14.6773 47.24 14.464 47.24C14.2507 47.24 14.0373 47.24 13.824 47.24C12.5013 47.24 11.456 47.624 10.688 48.392C9.92 49.1173 9.536 49.9067 9.536 50.76ZM74.747 53.96C73.4243 53.96 72.2937 53.5547 71.355 52.744C70.459 51.9333 70.011 50.5253 70.011 48.52C70.011 47.1547 70.3523 45.5547 71.035 43.72C71.7603 41.8853 72.7203 40.1147 73.915 38.408C75.1097 36.6587 76.4323 35.2293 77.883 34.12C79.3337 32.968 80.8057 32.392 82.299 32.392C83.2803 32.392 84.0057 32.7547 84.475 33.48C84.987 34.1627 85.243 34.9947 85.243 35.976C85.243 37.4267 84.7737 38.8347 83.835 40.2C82.8963 41.5653 81.7017 42.6747 80.251 43.528C78.843 44.3813 77.435 44.808 76.027 44.808C74.875 44.808 74.0003 44.4453 73.403 43.72C73.0617 44.5733 72.7843 45.4053 72.571 46.216C72.3577 47.0267 72.251 47.7947 72.251 48.52C72.251 49.7573 72.507 50.632 73.019 51.144C73.5737 51.6133 74.2563 51.848 75.067 51.848C76.0483 51.848 77.1363 51.592 78.331 51.08C79.5683 50.568 80.7203 49.9707 81.787 49.288C82.8537 48.5627 83.643 47.9653 84.155 47.496C85.0083 46.7707 85.819 45.9813 86.587 45.128C87.3977 44.232 88.1017 43.4 88.699 42.632C88.9123 42.376 89.147 42.248 89.403 42.248C89.659 42.248 89.8723 42.376 90.043 42.632C90.2563 42.8453 90.363 43.1227 90.363 43.464C90.363 43.7627 90.2563 44.0613 90.043 44.36C89.3603 45.2133 88.507 46.1947 87.483 47.304C86.5017 48.3707 85.3923 49.3733 84.155 50.312C83.4723 50.8667 82.5977 51.4213 81.531 51.976C80.4643 52.5307 79.3337 53 78.139 53.384C76.987 53.768 75.8563 53.96 74.747 53.96ZM75.899 42.76C76.7523 42.76 77.6697 42.4827 78.651 41.928C79.675 41.3733 80.571 40.648 81.339 39.752C82.1497 38.8133 82.683 37.8107 82.939 36.744C82.9817 36.6587 83.003 36.552 83.003 36.424C83.003 36.296 83.003 36.1893 83.003 36.104C83.003 35.336 82.7257 34.952 82.171 34.952C81.275 34.952 80.3363 35.2933 79.355 35.976C78.3737 36.616 77.435 37.4907 76.539 38.6C75.6857 39.6667 74.9177 40.84 74.235 42.12C74.4057 42.248 74.5763 42.376 74.747 42.504C74.9177 42.5893 75.0883 42.6533 75.259 42.696C75.3443 42.7387 75.451 42.76 75.579 42.76C75.707 42.76 75.8137 42.76 75.899 42.76ZM90.717 53.768C89.2663 53.768 88.2637 53.4053 87.709 52.68C87.1543 51.9547 86.877 51.016 86.877 49.864C86.877 48.7547 87.069 47.5387 87.453 46.216C87.8797 44.8507 88.3703 43.528 88.925 42.248C89.5223 40.968 90.0983 39.8587 90.653 38.92C91.2077 37.9387 91.6343 37.2773 91.933 36.936C92.061 35.4427 92.509 34.3333 93.277 33.608C94.045 32.84 94.7063 32.456 95.261 32.456C95.517 32.456 95.709 32.52 95.837 32.648C96.1783 32.9893 96.349 33.3733 96.349 33.8C96.349 34.3547 96.093 35.0587 95.581 35.912C95.069 36.7653 94.301 37.896 93.277 39.304C93.149 39.4747 92.8717 39.9227 92.445 40.648C92.0183 41.3733 91.5703 42.248 91.101 43.272C90.6317 44.296 90.2263 45.3413 89.885 46.408C89.5437 47.4747 89.373 48.4133 89.373 49.224C89.373 50.632 89.9917 51.336 91.229 51.336C92.5517 51.336 93.853 50.8453 95.133 49.864C96.4557 48.8827 97.6717 47.6453 98.781 46.152C99.933 44.616 100.936 43.016 101.789 41.352C102.685 39.6453 103.368 38.0667 103.837 36.616C104.349 35.1653 104.605 34.0347 104.605 33.224C104.605 32.7973 104.562 32.52 104.477 32.392C104.306 32.0933 104.221 31.7947 104.221 31.496C104.221 31.112 104.349 30.8133 104.605 30.6C104.861 30.3867 105.138 30.28 105.437 30.28C106.077 30.28 106.546 30.6213 106.845 31.304C107.016 31.6453 107.101 32.1573 107.101 32.84C107.101 34.0347 106.802 35.528 106.205 37.32C105.65 39.0693 104.84 40.904 103.773 42.824C102.749 44.7013 101.554 46.472 100.189 48.136C98.8237 49.8 97.3303 51.1653 95.709 52.232C94.0877 53.256 92.4237 53.768 90.717 53.768ZM127.307 60.936C123.424 60.936 120.224 60.4027 117.707 59.336C115.189 58.312 113.333 56.8827 112.139 55.048C110.944 53.2133 110.347 51.144 110.347 48.84C110.347 46.1947 111.072 43.336 112.523 40.264C113.973 37.1493 116.064 34.0987 118.795 31.112C118.795 31.112 118.816 31.0907 118.859 31.048C117.536 30.5787 116.299 30.0453 115.147 29.448C113.995 28.8507 112.971 28.168 112.075 27.4C111.051 26.5467 110.283 25.608 109.771 24.584C109.259 23.56 109.003 22.5787 109.003 21.64C109.003 20.2747 109.515 19.1227 110.539 18.184C111.563 17.2027 113.12 16.712 115.211 16.712C115.893 16.712 116.619 16.776 117.387 16.904C118.155 16.9893 118.965 17.16 119.819 17.416C120.416 17.5867 120.715 17.9493 120.715 18.504C120.715 18.8027 120.544 19.1013 120.203 19.4C119.904 19.656 119.52 19.6987 119.051 19.528C117.643 19.144 116.427 18.952 115.403 18.952C114.123 18.952 113.141 19.208 112.459 19.72C111.819 20.232 111.499 20.872 111.499 21.64C111.499 22.792 112.224 24.1147 113.675 25.608C115.168 27.0587 117.472 28.2747 120.587 29.256C123.147 26.7387 126.069 24.4773 129.355 22.472C132.683 20.424 136.267 18.8027 140.107 17.608C143.947 16.4133 147.957 15.816 152.139 15.816C156.192 15.816 159.221 16.4987 161.227 17.864C163.232 19.2293 164.235 20.808 164.235 22.6C164.235 24.3067 163.339 26.0347 161.547 27.784C159.797 29.4907 157.173 30.792 153.675 31.688C151.456 32.2427 148.853 32.712 145.867 33.096C142.923 33.4373 139.872 33.608 136.715 33.608C134.069 33.608 131.424 33.48 128.779 33.224C126.176 32.9253 123.701 32.456 121.355 31.816C118.752 34.5893 116.683 37.4693 115.147 40.456C113.653 43.4 112.907 46.152 112.907 48.712C112.907 51.5707 114.016 53.96 116.235 55.88C118.453 57.8 122.08 58.76 127.115 58.76C127.755 58.76 128.437 58.7173 129.163 58.632C129.888 58.5893 130.635 58.5467 131.403 58.504C134.048 58.2053 136.885 57.4587 139.915 56.264C142.987 55.112 146.016 53.5547 149.003 51.592C152.032 49.5867 154.805 47.2827 157.323 44.68C157.621 44.3813 157.92 44.232 158.219 44.232C158.517 44.232 158.752 44.3387 158.923 44.552C159.136 44.7653 159.243 45.0213 159.243 45.32C159.243 45.6187 159.115 45.896 158.859 46.152C156.427 48.8827 153.611 51.2933 150.411 53.384C147.253 55.5173 144.032 57.2027 140.747 58.44C137.461 59.72 134.389 60.488 131.531 60.744C130.08 60.872 128.672 60.936 127.307 60.936ZM123.211 30.024C125.259 30.4507 127.371 30.7707 129.547 30.984C131.765 31.1973 133.984 31.304 136.203 31.304C139.616 31.304 142.816 31.112 145.803 30.728C148.832 30.344 151.2 29.9173 152.907 29.448C155.936 28.68 158.155 27.6987 159.563 26.504C161.013 25.3093 161.739 24.136 161.739 22.984C161.739 21.6613 160.907 20.5307 159.243 19.592C157.579 18.6107 155.211 18.12 152.139 18.12C148.341 18.12 144.693 18.6533 141.194 19.72C137.696 20.744 134.411 22.152 131.339 23.944C128.309 25.736 125.6 27.7627 123.211 30.024ZM161.606 54.088C160.155 54.088 159.131 53.6827 158.534 52.872C157.936 52.0187 157.638 50.9733 157.638 49.736C157.638 48.712 157.787 47.6027 158.086 46.408C158.427 45.1707 158.854 43.9547 159.366 42.76C159.408 41.096 159.856 39.4533 160.71 37.832C161.606 36.2107 162.8 34.8667 164.294 33.8C165.83 32.7333 167.622 32.2 169.67 32.2C171.675 32.2 173.062 32.776 173.83 33.928C174.64 35.08 175.046 36.4453 175.046 38.024C175.046 38.9627 174.939 39.9227 174.726 40.904C174.512 41.8427 174.235 42.7387 173.894 43.592C173.552 44.4453 173.126 45.32 172.614 46.216C172.102 47.0693 171.526 47.9227 170.885 48.776C172.166 48.5627 173.275 48.1573 174.214 47.56C175.195 46.92 176.176 46.0453 177.158 44.936C178.139 43.8267 179.291 42.4187 180.614 40.712C180.87 40.4133 181.147 40.264 181.446 40.264C181.787 40.264 182.064 40.3707 182.278 40.584C182.534 40.7973 182.662 41.0747 182.662 41.416C182.662 41.672 182.576 41.9067 182.406 42.12C181.168 43.8267 179.91 45.3627 178.63 46.728C177.392 48.0933 175.984 49.16 174.406 49.928C172.827 50.696 170.928 51.08 168.71 51.08C167.686 51.976 166.576 52.7013 165.382 53.256C164.187 53.8107 162.928 54.088 161.606 54.088ZM165.318 37.512C164.806 37.896 164.187 38.664 163.462 39.816C162.736 40.968 162.075 42.2267 161.478 43.592C161.563 44.9147 162.096 46.1093 163.078 47.176C164.102 48.2 165.659 48.776 167.75 48.904C169.286 47.4107 170.523 45.6613 171.462 43.656C172.4 41.608 172.87 39.7733 172.87 38.152C172.87 37.0427 172.614 36.1467 172.102 35.464C171.59 34.7813 170.779 34.44 169.67 34.44C168.902 34.44 168.155 34.568 167.43 34.824C166.704 35.08 166.043 35.4213 165.446 35.848C165.659 36.0613 165.766 36.3173 165.766 36.616C165.766 36.9573 165.616 37.256 165.318 37.512ZM159.878 49.608C159.878 50.2907 160.006 50.8453 160.262 51.272C160.56 51.656 161.008 51.848 161.606 51.848C162.843 51.848 164.102 51.464 165.382 50.696C164.144 50.3973 163.099 49.928 162.246 49.288C161.392 48.6053 160.731 47.8373 160.262 46.984C160.006 48.008 159.878 48.8827 159.878 49.608ZM178.142 54.472C177.843 54.472 177.566 54.3653 177.31 54.152C177.054 53.9387 176.926 53.6827 176.926 53.384C176.926 53.2987 176.969 53.128 177.054 52.872C177.907 51.0373 178.739 49.3733 179.55 47.88C180.403 46.344 181.278 44.8507 182.174 43.4C182.558 42.8027 182.985 42.0347 183.454 41.096C183.966 40.1147 184.457 39.0693 184.926 37.96C185.395 36.808 185.779 35.72 186.078 34.696C186.419 33.672 186.59 32.84 186.59 32.2C186.59 31.8587 186.569 31.624 186.526 31.496C186.483 31.4533 186.462 31.368 186.462 31.24C186.462 30.8987 186.611 30.6213 186.91 30.408C187.251 30.152 187.571 30.024 187.87 30.024C188.211 30.024 188.531 30.1947 188.83 30.536C189.129 30.8347 189.278 31.368 189.278 32.136C189.278 32.776 189.129 33.6293 188.83 34.696C188.574 35.72 188.126 36.9573 187.486 38.408C187.145 39.1333 186.825 39.816 186.526 40.456C186.227 41.0533 185.929 41.6293 185.63 42.184C187.294 40.4347 189.001 38.8773 190.75 37.512C192.499 36.104 194.057 34.9947 195.422 34.184C196.787 33.3733 197.705 32.968 198.174 32.968C198.686 32.968 199.049 33.1173 199.262 33.416C199.475 33.7147 199.582 34.056 199.582 34.44C199.582 34.9947 199.411 35.6347 199.07 36.36C198.771 37.0427 198.451 37.6613 198.11 38.216C197.769 38.7707 197.534 39.1547 197.406 39.368C196.937 40.0933 196.297 41.1813 195.486 42.632C194.675 44.0827 193.993 45.4907 193.438 46.856C193.267 47.3253 193.097 47.816 192.926 48.328C192.798 48.7973 192.734 49.2027 192.734 49.544C192.734 50.0987 192.969 50.376 193.438 50.376C193.865 50.376 194.483 50.1627 195.294 49.736C196.318 49.1813 197.257 48.4773 198.11 47.624C199.006 46.728 199.774 45.96 200.414 45.32C200.457 45.2773 200.649 45.064 200.99 44.68C201.374 44.296 201.737 43.912 202.078 43.528C202.462 43.144 202.654 42.952 202.654 42.952C202.825 42.7387 203.038 42.632 203.294 42.632C203.507 42.632 203.699 42.76 203.87 43.016C204.083 43.2293 204.19 43.5067 204.19 43.848C204.19 44.232 204.083 44.552 203.87 44.808C203.23 45.704 202.355 46.6853 201.246 47.752C200.137 48.8187 199.155 49.6933 198.302 50.376C197.406 51.0587 196.489 51.6133 195.55 52.04C194.654 52.424 193.758 52.616 192.862 52.616C192.094 52.616 191.454 52.4667 190.942 52.168C190.43 51.8693 190.174 51.08 190.174 49.8C190.174 48.1787 190.579 46.5787 191.39 45C192.243 43.4213 193.182 41.864 194.206 40.328C195.273 38.792 196.147 37.3413 196.83 35.976C195.763 36.616 194.334 37.5973 192.542 38.92C190.793 40.2427 188.937 41.8 186.974 43.592C185.054 45.3413 183.305 47.2613 181.726 49.352C181.427 49.9067 181.107 50.504 180.766 51.144C180.425 51.784 180.083 52.488 179.742 53.256C179.358 54.0667 178.825 54.472 178.142 54.472ZM201.705 54.472C201.406 54.472 201.129 54.3653 200.873 54.152C200.617 53.9387 200.489 53.6827 200.489 53.384C200.489 53.2987 200.531 53.128 200.617 52.872C201.47 51.0373 202.302 49.3733 203.113 47.88C203.966 46.344 204.841 44.8507 205.737 43.4C206.121 42.8027 206.547 42.0347 207.017 41.096C207.529 40.1147 208.019 39.0693 208.489 37.96C208.958 36.808 209.342 35.72 209.641 34.696C209.982 33.672 210.153 32.84 210.153 32.2C210.153 31.8587 210.131 31.624 210.089 31.496C210.046 31.4533 210.025 31.368 210.025 31.24C210.025 30.8987 210.174 30.6213 210.473 30.408C210.814 30.152 211.134 30.024 211.433 30.024C211.774 30.024 212.094 30.1947 212.393 30.536C212.691 30.8347 212.841 31.368 212.841 32.136C212.841 32.776 212.691 33.6293 212.393 34.696C212.137 35.72 211.689 36.9573 211.049 38.408C210.707 39.1333 210.387 39.816 210.089 40.456C209.79 41.0533 209.491 41.6293 209.193 42.184C210.857 40.4347 212.563 38.8773 214.312 37.512C216.062 36.104 217.619 34.9947 218.985 34.184C220.35 33.3733 221.267 32.968 221.737 32.968C222.249 32.968 222.611 33.1173 222.825 33.416C223.038 33.7147 223.145 34.056 223.145 34.44C223.145 34.9947 222.974 35.6347 222.633 36.36C222.334 37.0427 222.014 37.6613 221.673 38.216C221.331 38.7707 221.097 39.1547 220.969 39.368C220.499 40.0933 219.859 41.1813 219.049 42.632C218.238 44.0827 217.555 45.4907 217.001 46.856C216.83 47.3253 216.659 47.816 216.489 48.328C216.361 48.7973 216.297 49.2027 216.297 49.544C216.297 50.0987 216.531 50.376 217.001 50.376C217.427 50.376 218.046 50.1627 218.857 49.736C219.881 49.1813 220.819 48.4773 221.673 47.624C222.569 46.728 223.337 45.96 223.977 45.32C224.019 45.2773 224.211 45.064 224.553 44.68C224.937 44.296 225.299 43.912 225.641 43.528C226.025 43.144 226.217 42.952 226.217 42.952C226.387 42.7387 226.601 42.632 226.857 42.632C227.07 42.632 227.262 42.76 227.433 43.016C227.646 43.2293 227.753 43.5067 227.753 43.848C227.753 44.232 227.646 44.552 227.433 44.808C226.793 45.704 225.918 46.6853 224.809 47.752C223.699 48.8187 222.718 49.6933 221.865 50.376C220.969 51.0587 220.051 51.6133 219.113 52.04C218.217 52.424 217.321 52.616 216.425 52.616C215.657 52.616 215.017 52.4667 214.505 52.168C213.993 51.8693 213.737 51.08 213.737 49.8C213.737 48.1787 214.142 46.5787 214.953 45C215.806 43.4213 216.745 41.864 217.769 40.328C218.835 38.792 219.71 37.3413 220.393 35.976C219.326 36.616 217.897 37.5973 216.105 38.92C214.355 40.2427 212.499 41.8 210.537 43.592C208.617 45.3413 206.867 47.2613 205.289 49.352C204.99 49.9067 204.67 50.504 204.329 51.144C203.987 51.784 203.646 52.488 203.305 53.256C202.921 54.0667 202.387 54.472 201.705 54.472ZM229.747 53.96C228.424 53.96 227.294 53.5547 226.355 52.744C225.459 51.9333 225.011 50.5253 225.011 48.52C225.011 47.1547 225.352 45.5547 226.035 43.72C226.76 41.8853 227.72 40.1147 228.915 38.408C230.11 36.6587 231.432 35.2293 232.883 34.12C234.334 32.968 235.806 32.392 237.299 32.392C238.28 32.392 239.006 32.7547 239.475 33.48C239.987 34.1627 240.243 34.9947 240.243 35.976C240.243 37.4267 239.774 38.8347 238.835 40.2C237.896 41.5653 236.702 42.6747 235.251 43.528C233.843 44.3813 232.435 44.808 231.027 44.808C229.875 44.808 229 44.4453 228.403 43.72C228.062 44.5733 227.784 45.4053 227.571 46.216C227.358 47.0267 227.251 47.7947 227.251 48.52C227.251 49.7573 227.507 50.632 228.019 51.144C228.574 51.6133 229.256 51.848 230.067 51.848C231.048 51.848 232.136 51.592 233.331 51.08C234.568 50.568 235.72 49.9707 236.787 49.288C237.854 48.5627 238.643 47.9653 239.155 47.496C240.008 46.7707 240.819 45.9813 241.587 45.128C242.398 44.232 243.102 43.4 243.699 42.632C243.912 42.376 244.147 42.248 244.403 42.248C244.659 42.248 244.872 42.376 245.043 42.632C245.256 42.8453 245.363 43.1227 245.363 43.464C245.363 43.7627 245.256 44.0613 245.043 44.36C244.36 45.2133 243.507 46.1947 242.483 47.304C241.502 48.3707 240.392 49.3733 239.155 50.312C238.472 50.8667 237.598 51.4213 236.531 51.976C235.464 52.5307 234.334 53 233.139 53.384C231.987 53.768 230.856 53.96 229.747 53.96ZM230.899 42.76C231.752 42.76 232.67 42.4827 233.651 41.928C234.675 41.3733 235.571 40.648 236.339 39.752C237.15 38.8133 237.683 37.8107 237.939 36.744C237.982 36.6587 238.003 36.552 238.003 36.424C238.003 36.296 238.003 36.1893 238.003 36.104C238.003 35.336 237.726 34.952 237.171 34.952C236.275 34.952 235.336 35.2933 234.355 35.976C233.374 36.616 232.435 37.4907 231.539 38.6C230.686 39.6667 229.918 40.84 229.235 42.12C229.406 42.248 229.576 42.376 229.747 42.504C229.918 42.5893 230.088 42.6533 230.259 42.696C230.344 42.7387 230.451 42.76 230.579 42.76C230.707 42.76 230.814 42.76 230.899 42.76ZM247.509 53.448C245.717 53.448 244.352 53 243.413 52.104C242.517 51.208 242.069 50.056 242.069 48.648C242.069 47.0267 242.389 45.4907 243.029 44.04C243.712 42.5893 244.48 41.2453 245.333 40.008C246.57 38.216 248.042 36.7013 249.749 35.464C251.498 34.184 253.312 33.544 255.189 33.544C256.426 33.544 257.28 33.8427 257.749 34.44C258.218 34.9947 258.453 35.6987 258.453 36.552C258.453 37.448 258.261 38.3867 257.877 39.368C257.493 40.3067 257.066 41.0533 256.597 41.608C256.298 41.9493 255.978 42.12 255.637 42.12C254.954 42.12 254.613 41.8213 254.613 41.224C254.613 40.9253 254.741 40.648 254.997 40.392C255.21 40.1787 255.466 39.688 255.765 38.92C256.106 38.1093 256.277 37.4053 256.277 36.808C256.277 36.2107 256.085 35.8907 255.701 35.848C255.573 35.8053 255.402 35.784 255.189 35.784C254.336 35.784 253.376 36.1253 252.309 36.808C251.242 37.448 250.218 38.3013 249.237 39.368C248.256 40.4347 247.424 41.5653 246.741 42.76C246.186 43.6987 245.738 44.7013 245.397 45.768C245.056 46.8347 244.885 47.752 244.885 48.52C244.885 49.3307 245.12 49.9707 245.589 50.44C246.101 50.9093 246.826 51.144 247.765 51.144C249.258 51.144 250.816 50.7387 252.437 49.928C254.101 49.1173 255.445 48.2853 256.469 47.432C257.322 46.7067 258.112 45.96 258.837 45.192C259.562 44.3813 260.245 43.6347 260.885 42.952C261.056 42.7387 261.269 42.632 261.525 42.632C261.738 42.632 261.93 42.76 262.101 43.016C262.314 43.2293 262.421 43.5067 262.421 43.848C262.421 44.232 262.314 44.552 262.101 44.808C261.418 45.704 260.522 46.7067 259.413 47.816C258.304 48.8827 257.322 49.736 256.469 50.376C255.274 51.2293 253.845 51.9547 252.181 52.552C250.517 53.1493 248.96 53.448 247.509 53.448ZM265.46 53.64C263.113 53.64 261.94 52.4667 261.94 50.12C261.94 49.1387 262.153 48.0293 262.58 46.792C263.22 44.9147 264.18 42.888 265.46 40.712C266.783 38.536 268.127 36.4453 269.492 34.44H267.188C266.847 34.44 266.569 34.3333 266.356 34.12C266.185 33.864 266.1 33.5867 266.1 33.288C266.1 33.032 266.185 32.7973 266.356 32.584C266.569 32.328 266.847 32.2 267.188 32.2H271.092C271.561 31.6027 271.988 31.0267 272.372 30.472C272.756 29.8747 273.14 29.2987 273.524 28.744C274.121 27.208 274.847 25.736 275.7 24.328C276.596 22.92 277.684 21.7893 278.964 20.936C279.177 20.808 279.369 20.744 279.54 20.744C279.881 20.744 280.18 20.9147 280.436 21.256C280.692 21.5547 280.82 21.896 280.82 22.28C280.82 22.5787 280.713 22.8987 280.5 23.24C280.372 23.4107 279.967 23.944 279.284 24.84C278.601 25.736 277.791 26.8453 276.852 28.168C275.913 29.448 274.932 30.792 273.908 32.2H280.052C280.436 32.2 280.713 32.328 280.884 32.584C281.055 32.7973 281.14 33.032 281.14 33.288C281.14 33.5867 281.055 33.864 280.884 34.12C280.713 34.3333 280.436 34.44 280.052 34.44H272.372L271.796 35.336C271.412 35.8907 270.836 36.7867 270.068 38.024C269.343 39.2613 268.553 40.6267 267.7 42.12C266.889 43.6133 266.185 45.064 265.588 46.472C265.033 47.8373 264.756 48.968 264.756 49.864C264.756 50.9307 265.204 51.464 266.1 51.464C266.825 51.464 267.913 51.1227 269.364 50.44C270.857 49.7147 272.329 48.7333 273.78 47.496C274.633 46.7707 275.423 46.0027 276.148 45.192C276.873 44.3813 277.556 43.6347 278.196 42.952C278.367 42.7387 278.58 42.632 278.836 42.632C279.049 42.632 279.241 42.76 279.412 43.016C279.625 43.2293 279.732 43.5067 279.732 43.848C279.732 44.232 279.625 44.552 279.412 44.808C278.772 45.704 277.876 46.7067 276.724 47.816C275.615 48.8827 274.633 49.736 273.78 50.376C272.159 51.5707 270.409 52.4667 268.532 53.064C267.38 53.448 266.356 53.64 265.46 53.64Z" fill="black"/>
</svg>
