<svg width="78" height="25" viewBox="0 0 78 25" fill="none" xmlns="http://www.w3.org/2000/svg">
<path d="M16.416 21.368C15.264 21.368 14.024 21.176 12.696 20.792C12.232 20.648 11.776 20.488 11.328 20.312C10.88 20.136 10.432 19.952 9.984 19.76C9.408 20.192 8.704 20.552 7.872 20.84C7.04 21.128 6.248 21.272 5.496 21.272C4.52 21.272 3.808 21.056 3.36 20.624C2.928 20.192 2.712 19.712 2.712 19.184C2.712 18.64 2.928 18.136 3.36 17.672C3.792 17.208 4.384 16.976 5.136 16.976C5.744 16.976 6.368 17.128 7.008 17.432C7.648 17.736 8.248 18.016 8.808 18.272C8.968 18.352 9.136 18.432 9.312 18.512C9.488 18.592 9.664 18.672 9.84 18.752C10.368 18.288 10.936 17.672 11.544 16.904C12.152 16.136 12.784 15.288 13.44 14.36C14.096 13.432 14.76 12.488 15.432 11.528C16.12 10.568 16.808 9.648 17.496 8.768C18.184 7.888 18.872 7.12 19.56 6.464C19.08 6.272 18.568 6.128 18.024 6.032C17.48 5.92 16.896 5.864 16.272 5.864C14.592 5.864 13.136 6.032 11.904 6.368C10.688 6.688 9.664 7.112 8.832 7.64C8.016 8.168 7.368 8.736 6.888 9.344C6.424 9.936 6.104 10.496 5.928 11.024C5.864 11.232 5.816 11.424 5.784 11.6C5.752 11.76 5.736 11.92 5.736 12.08C5.736 12.624 5.904 13.032 6.24 13.304C6.576 13.576 7.008 13.712 7.536 13.712C8.08 13.712 8.688 13.56 9.36 13.256C10.032 12.952 10.72 12.48 11.424 11.84C12.128 11.184 12.776 10.328 13.368 9.272C13.448 9.128 13.568 9.056 13.728 9.056C13.856 9.056 13.96 9.096 14.04 9.176C14.136 9.24 14.184 9.336 14.184 9.464C14.184 9.544 14.16 9.624 14.112 9.704C13.472 10.824 12.76 11.744 11.976 12.464C11.208 13.184 10.432 13.72 9.648 14.072C8.88 14.408 8.16 14.576 7.488 14.576C6.736 14.576 6.112 14.368 5.616 13.952C5.12 13.52 4.872 12.912 4.872 12.128C4.872 11.696 4.952 11.24 5.112 10.76C5.32 10.104 5.688 9.44 6.216 8.768C6.76 8.096 7.48 7.48 8.376 6.92C9.288 6.344 10.392 5.88 11.688 5.528C13 5.176 14.528 5 16.272 5C17.04 5 17.752 5.072 18.408 5.216C19.08 5.36 19.696 5.56 20.256 5.816C20.736 5.4 21.208 5.072 21.672 4.832C22.152 4.592 22.608 4.472 23.04 4.472C23.184 4.472 23.288 4.52 23.352 4.616C23.416 4.696 23.448 4.792 23.448 4.904C23.448 5.016 23.416 5.12 23.352 5.216C23.288 5.296 23.184 5.336 23.04 5.336C22.528 5.336 21.872 5.64 21.072 6.248C22.336 7.016 23.28 8.04 23.904 9.32C24.544 10.6 24.864 11.92 24.864 13.28C24.864 14.544 24.608 15.736 24.096 16.856C23.504 18.184 22.536 19.264 21.192 20.096C19.848 20.944 18.256 21.368 16.416 21.368ZM12.96 19.976C14.16 20.328 15.304 20.504 16.392 20.504C18.104 20.504 19.552 20.128 20.736 19.376C21.936 18.608 22.8 17.64 23.328 16.472C23.792 15.464 24.024 14.4 24.024 13.28C24.024 12.016 23.72 10.8 23.112 9.632C22.504 8.448 21.592 7.52 20.376 6.848C19.88 7.28 19.376 7.792 18.864 8.384C18.368 8.976 17.88 9.616 17.4 10.304C17.048 10.816 16.6 11.464 16.056 12.248C15.512 13.016 14.928 13.84 14.304 14.72C13.68 15.584 13.048 16.408 12.408 17.192C11.784 17.976 11.216 18.624 10.704 19.136C11.072 19.296 11.44 19.448 11.808 19.592C12.192 19.736 12.576 19.864 12.96 19.976ZM3.576 19.16C3.576 19.464 3.72 19.744 4.008 20C4.312 20.272 4.8 20.408 5.472 20.408C6.048 20.408 6.664 20.312 7.32 20.12C7.976 19.928 8.56 19.672 9.072 19.352C8.688 19.176 8.304 19 7.92 18.824C7.536 18.648 7.144 18.472 6.744 18.296C6.504 18.184 6.296 18.096 6.12 18.032C5.944 17.952 5.792 17.904 5.664 17.888C5.584 17.856 5.504 17.84 5.424 17.84C5.344 17.84 5.264 17.84 5.184 17.84C4.688 17.84 4.296 17.984 4.008 18.272C3.72 18.544 3.576 18.84 3.576 19.16ZM28.0301 20.36C27.5341 20.36 27.1101 20.208 26.7581 19.904C26.4221 19.6 26.2541 19.072 26.2541 18.32C26.2541 17.808 26.3821 17.208 26.6381 16.52C26.9101 15.832 27.2701 15.168 27.7181 14.528C28.1661 13.872 28.6621 13.336 29.2061 12.92C29.7501 12.488 30.3021 12.272 30.8621 12.272C31.2301 12.272 31.5021 12.408 31.6781 12.68C31.8701 12.936 31.9661 13.248 31.9661 13.616C31.9661 14.16 31.7901 14.688 31.4381 15.2C31.0861 15.712 30.6381 16.128 30.0941 16.448C29.5661 16.768 29.0381 16.928 28.5101 16.928C28.0781 16.928 27.7501 16.792 27.5261 16.52C27.3981 16.84 27.2941 17.152 27.2141 17.456C27.1341 17.76 27.0941 18.048 27.0941 18.32C27.0941 18.784 27.1901 19.112 27.3821 19.304C27.5901 19.48 27.8461 19.568 28.1501 19.568C28.5181 19.568 28.9261 19.472 29.3741 19.28C29.8381 19.088 30.2701 18.864 30.6701 18.608C31.0701 18.336 31.3661 18.112 31.5581 17.936C31.8781 17.664 32.1821 17.368 32.4701 17.048C32.7741 16.712 33.0381 16.4 33.2621 16.112C33.3421 16.016 33.4301 15.968 33.5261 15.968C33.6221 15.968 33.7021 16.016 33.7661 16.112C33.8461 16.192 33.8861 16.296 33.8861 16.424C33.8861 16.536 33.8461 16.648 33.7661 16.76C33.5101 17.08 33.1901 17.448 32.8061 17.864C32.4381 18.264 32.0221 18.64 31.5581 18.992C31.3021 19.2 30.9741 19.408 30.5741 19.616C30.1741 19.824 29.7501 20 29.3021 20.144C28.8701 20.288 28.4461 20.36 28.0301 20.36ZM28.4621 16.16C28.7821 16.16 29.1261 16.056 29.4941 15.848C29.8781 15.64 30.2141 15.368 30.5021 15.032C30.8061 14.68 31.0061 14.304 31.1021 13.904C31.1181 13.872 31.1261 13.832 31.1261 13.784C31.1261 13.736 31.1261 13.696 31.1261 13.664C31.1261 13.376 31.0221 13.232 30.8141 13.232C30.4781 13.232 30.1261 13.36 29.7581 13.616C29.3901 13.856 29.0381 14.184 28.7021 14.6C28.3821 15 28.0941 15.44 27.8381 15.92C27.9021 15.968 27.9661 16.016 28.0301 16.064C28.0941 16.096 28.1581 16.12 28.2221 16.136C28.2541 16.152 28.2941 16.16 28.3421 16.16C28.3901 16.16 28.4301 16.16 28.4621 16.16ZM34.0189 20.288C33.4749 20.288 33.0989 20.152 32.8909 19.88C32.6829 19.608 32.5789 19.256 32.5789 18.824C32.5789 18.408 32.6509 17.952 32.7949 17.456C32.9549 16.944 33.1389 16.448 33.3469 15.968C33.5709 15.488 33.7869 15.072 33.9949 14.72C34.2029 14.352 34.3629 14.104 34.4749 13.976C34.5229 13.416 34.6909 13 34.9789 12.728C35.2669 12.44 35.5149 12.296 35.7229 12.296C35.8189 12.296 35.8909 12.32 35.9389 12.368C36.0669 12.496 36.1309 12.64 36.1309 12.8C36.1309 13.008 36.0349 13.272 35.8429 13.592C35.6509 13.912 35.3629 14.336 34.9789 14.864C34.9309 14.928 34.8269 15.096 34.6669 15.368C34.5069 15.64 34.3389 15.968 34.1629 16.352C33.9869 16.736 33.8349 17.128 33.7069 17.528C33.5789 17.928 33.5149 18.28 33.5149 18.584C33.5149 19.112 33.7469 19.376 34.2109 19.376C34.7069 19.376 35.1949 19.192 35.6749 18.824C36.1709 18.456 36.6269 17.992 37.0429 17.432C37.4749 16.856 37.8509 16.256 38.1709 15.632C38.5069 14.992 38.7629 14.4 38.9389 13.856C39.1309 13.312 39.2269 12.888 39.2269 12.584C39.2269 12.424 39.2109 12.32 39.1789 12.272C39.1149 12.16 39.0829 12.048 39.0829 11.936C39.0829 11.792 39.1309 11.68 39.2269 11.6C39.3229 11.52 39.4269 11.48 39.5389 11.48C39.7789 11.48 39.9549 11.608 40.0669 11.864C40.1309 11.992 40.1629 12.184 40.1629 12.44C40.1629 12.888 40.0509 13.448 39.8269 14.12C39.6189 14.776 39.3149 15.464 38.9149 16.184C38.5309 16.888 38.0829 17.552 37.5709 18.176C37.0589 18.8 36.4989 19.312 35.8909 19.712C35.2829 20.096 34.6589 20.288 34.0189 20.288ZM47.7399 22.976C46.2839 22.976 45.0839 22.776 44.1399 22.376C43.1959 21.992 42.4999 21.456 42.0519 20.768C41.6039 20.08 41.3799 19.304 41.3799 18.44C41.3799 17.448 41.6519 16.376 42.1959 15.224C42.7399 14.056 43.5239 12.912 44.5479 11.792C44.5479 11.792 44.5559 11.784 44.5719 11.768C44.0759 11.592 43.6119 11.392 43.1799 11.168C42.7479 10.944 42.3639 10.688 42.0279 10.4C41.6439 10.08 41.3559 9.728 41.1639 9.344C40.9719 8.96 40.8759 8.592 40.8759 8.24C40.8759 7.728 41.0679 7.296 41.4519 6.944C41.8359 6.576 42.4199 6.392 43.2039 6.392C43.4599 6.392 43.7319 6.416 44.0199 6.464C44.3079 6.496 44.6119 6.56 44.9319 6.656C45.1559 6.72 45.2679 6.856 45.2679 7.064C45.2679 7.176 45.2039 7.288 45.0759 7.4C44.9639 7.496 44.8199 7.512 44.6439 7.448C44.1159 7.304 43.6599 7.232 43.2759 7.232C42.7959 7.232 42.4279 7.328 42.1719 7.52C41.9319 7.712 41.8119 7.952 41.8119 8.24C41.8119 8.672 42.0839 9.168 42.6279 9.728C43.1879 10.272 44.0519 10.728 45.2199 11.096C46.1799 10.152 47.2759 9.304 48.5079 8.552C49.7559 7.784 51.0999 7.176 52.5399 6.728C53.9799 6.28 55.4839 6.056 57.0519 6.056C58.5719 6.056 59.7079 6.312 60.4599 6.824C61.2119 7.336 61.5879 7.928 61.5879 8.6C61.5879 9.24 61.2519 9.888 60.5799 10.544C59.9239 11.184 58.9399 11.672 57.6279 12.008C56.7959 12.216 55.8199 12.392 54.6999 12.536C53.5959 12.664 52.4519 12.728 51.2679 12.728C50.2759 12.728 49.2839 12.68 48.2919 12.584C47.3159 12.472 46.3879 12.296 45.5079 12.056C44.5319 13.096 43.7559 14.176 43.1799 15.296C42.6199 16.4 42.3399 17.432 42.3399 18.392C42.3399 19.464 42.7559 20.36 43.5879 21.08C44.4199 21.8 45.7799 22.16 47.6679 22.16C47.9079 22.16 48.1639 22.144 48.4359 22.112C48.7079 22.096 48.9879 22.08 49.2759 22.064C50.2679 21.952 51.3319 21.672 52.4679 21.224C53.6199 20.792 54.7559 20.208 55.8759 19.472C57.0119 18.72 58.0519 17.856 58.9959 16.88C59.1079 16.768 59.2199 16.712 59.3319 16.712C59.4439 16.712 59.5319 16.752 59.5959 16.832C59.6759 16.912 59.7159 17.008 59.7159 17.12C59.7159 17.232 59.6679 17.336 59.5719 17.432C58.6599 18.456 57.6039 19.36 56.4039 20.144C55.2199 20.944 54.0119 21.576 52.7799 22.04C51.5479 22.52 50.3959 22.808 49.3239 22.904C48.7799 22.952 48.2519 22.976 47.7399 22.976ZM46.2039 11.384C46.9719 11.544 47.7639 11.664 48.5799 11.744C49.4119 11.824 50.2439 11.864 51.0759 11.864C52.3559 11.864 53.5559 11.792 54.6759 11.648C55.8119 11.504 56.6999 11.344 57.3399 11.168C58.4759 10.88 59.3079 10.512 59.8359 10.064C60.3799 9.616 60.6519 9.176 60.6519 8.744C60.6519 8.248 60.3399 7.824 59.7159 7.472C59.0919 7.104 58.2039 6.92 57.0519 6.92C55.6279 6.92 54.2599 7.12 52.9479 7.52C51.6359 7.904 50.4039 8.432 49.2519 9.104C48.1159 9.776 47.0999 10.536 46.2039 11.384ZM60.6021 20.408C60.0581 20.408 59.6741 20.256 59.4501 19.952C59.2261 19.632 59.1141 19.24 59.1141 18.776C59.1141 18.392 59.1701 17.976 59.2821 17.528C59.4101 17.064 59.5701 16.608 59.7621 16.16C59.7781 15.536 59.9461 14.92 60.2661 14.312C60.6021 13.704 61.0501 13.2 61.6101 12.8C62.1861 12.4 62.8581 12.2 63.6261 12.2C64.3781 12.2 64.8981 12.416 65.1861 12.848C65.4901 13.28 65.6421 13.792 65.6421 14.384C65.6421 14.736 65.6021 15.096 65.5221 15.464C65.4421 15.816 65.3381 16.152 65.2101 16.472C65.0821 16.792 64.9221 17.12 64.7301 17.456C64.5381 17.776 64.3221 18.096 64.0821 18.416C64.5621 18.336 64.9781 18.184 65.3301 17.96C65.6981 17.72 66.0661 17.392 66.4341 16.976C66.8021 16.56 67.2341 16.032 67.7301 15.392C67.8261 15.28 67.9301 15.224 68.0421 15.224C68.1701 15.224 68.2741 15.264 68.3541 15.344C68.4501 15.424 68.4981 15.528 68.4981 15.656C68.4981 15.752 68.4661 15.84 68.4021 15.92C67.9381 16.56 67.4661 17.136 66.9861 17.648C66.5221 18.16 65.9941 18.56 65.4021 18.848C64.8101 19.136 64.0981 19.28 63.2661 19.28C62.8821 19.616 62.4661 19.888 62.0181 20.096C61.5701 20.304 61.0981 20.408 60.6021 20.408ZM61.9941 14.192C61.8021 14.336 61.5701 14.624 61.2981 15.056C61.0261 15.488 60.7781 15.96 60.5541 16.472C60.5861 16.968 60.7861 17.416 61.1541 17.816C61.5381 18.2 62.1221 18.416 62.9061 18.464C63.4821 17.904 63.9461 17.248 64.2981 16.496C64.6501 15.728 64.8261 15.04 64.8261 14.432C64.8261 14.016 64.7301 13.68 64.5381 13.424C64.3461 13.168 64.0421 13.04 63.6261 13.04C63.3381 13.04 63.0581 13.088 62.7861 13.184C62.5141 13.28 62.2661 13.408 62.0421 13.568C62.1221 13.648 62.1621 13.744 62.1621 13.856C62.1621 13.984 62.1061 14.096 61.9941 14.192ZM59.9541 18.728C59.9541 18.984 60.0021 19.192 60.0981 19.352C60.2101 19.496 60.3781 19.568 60.6021 19.568C61.0661 19.568 61.5381 19.424 62.0181 19.136C61.5541 19.024 61.1621 18.848 60.8421 18.608C60.5221 18.352 60.2741 18.064 60.0981 17.744C60.0021 18.128 59.9541 18.456 59.9541 18.728ZM66.8033 20.552C66.6913 20.552 66.5873 20.512 66.4913 20.432C66.3953 20.352 66.3473 20.256 66.3473 20.144C66.3473 20.112 66.3633 20.048 66.3953 19.952C66.7153 19.264 67.0273 18.64 67.3313 18.08C67.6513 17.504 67.9793 16.944 68.3153 16.4C68.4593 16.176 68.6193 15.888 68.7953 15.536C68.9873 15.168 69.1713 14.776 69.3473 14.36C69.5233 13.928 69.6673 13.52 69.7793 13.136C69.9073 12.752 69.9713 12.44 69.9713 12.2C69.9713 12.072 69.9633 11.984 69.9473 11.936C69.9313 11.92 69.9233 11.888 69.9233 11.84C69.9233 11.712 69.9793 11.608 70.0913 11.528C70.2193 11.432 70.3393 11.384 70.4513 11.384C70.5793 11.384 70.6993 11.448 70.8113 11.576C70.9233 11.688 70.9793 11.888 70.9793 12.176C70.9793 12.416 70.9233 12.736 70.8113 13.136C70.7153 13.52 70.5473 13.984 70.3073 14.528C70.1793 14.8 70.0593 15.056 69.9473 15.296C69.8353 15.52 69.7233 15.736 69.6113 15.944C70.2353 15.288 70.8753 14.704 71.5312 14.192C72.1873 13.664 72.7713 13.248 73.2833 12.944C73.7953 12.64 74.1393 12.488 74.3153 12.488C74.5073 12.488 74.6433 12.544 74.7233 12.656C74.8033 12.768 74.8433 12.896 74.8433 13.04C74.8433 13.248 74.7793 13.488 74.6513 13.76C74.5393 14.016 74.4193 14.248 74.2913 14.456C74.1633 14.664 74.0753 14.808 74.0273 14.888C73.8513 15.16 73.6113 15.568 73.3073 16.112C73.0033 16.656 72.7473 17.184 72.5393 17.696C72.4753 17.872 72.4113 18.056 72.3473 18.248C72.2993 18.424 72.2753 18.576 72.2753 18.704C72.2753 18.912 72.3633 19.016 72.5393 19.016C72.6993 19.016 72.9313 18.936 73.2353 18.776C73.6193 18.568 73.9713 18.304 74.2913 17.984C74.6273 17.648 74.9153 17.36 75.1553 17.12C75.1713 17.104 75.2433 17.024 75.3713 16.88C75.5153 16.736 75.6513 16.592 75.7793 16.448C75.9233 16.304 75.9953 16.232 75.9953 16.232C76.0593 16.152 76.1393 16.112 76.2353 16.112C76.3153 16.112 76.3873 16.16 76.4513 16.256C76.5313 16.336 76.5713 16.44 76.5713 16.568C76.5713 16.712 76.5313 16.832 76.4513 16.928C76.2113 17.264 75.8833 17.632 75.4673 18.032C75.0513 18.432 74.6833 18.76 74.3633 19.016C74.0273 19.272 73.6833 19.48 73.3313 19.64C72.9953 19.784 72.6593 19.856 72.3233 19.856C72.0353 19.856 71.7953 19.8 71.6033 19.688C71.4113 19.576 71.3153 19.28 71.3153 18.8C71.3153 18.192 71.4673 17.592 71.7713 17C72.0913 16.408 72.4433 15.824 72.8273 15.248C73.2273 14.672 73.5553 14.128 73.8113 13.616C73.4113 13.856 72.8753 14.224 72.2033 14.72C71.5473 15.216 70.8513 15.8 70.1153 16.472C69.3953 17.128 68.7393 17.848 68.1473 18.632C68.0353 18.84 67.9153 19.064 67.7873 19.304C67.6593 19.544 67.5313 19.808 67.4033 20.096C67.2593 20.4 67.0593 20.552 66.8033 20.552Z" fill="black"/>
</svg>
